PathFileType	4	(X/Y/Z)	s05c0103.trc
DataRate	CameraRate	NumFrames	NumMarkers	Units	OrigDataRate	OrigDataStartFrame	OrigNumFrames
200	200	4	49	mm	200	1000	2000
Frame#	Time	racr			lacr			c7			jug			rlel			rdr			llel			ldr			s2			lic			ric			lasi			rasi			rpsi			lpsi			rgt			lgt			rth1			rth2			rth3			rth4			rlfc			rsh1			rsh2			rsh3			rsh4			rlmal			rmmal			rcal			rtoe			rmt5			lth1			lth2			lth4			lth3			llfc			lmfc			lsh1			lsh2			lsh3			lsh4			llmal			lmmal			lcal			ltoe			lmt5			SBIKE			LBIKE			RBIKE			
		X1	Y1	Z1	X2	Y2	Z2	X3	Y3	Z3	X4	Y4	Z4	X5	Y5	Z5	X6	Y6	Z6	X7	Y7	Z7	X8	Y8	Z8	X9	Y9	Z9	X10	Y10	Z10	X11	Y11	Z11	X12	Y12	Z12	X13	Y13	Z13	X14	Y14	Z14	X15	Y15	Z15	X16	Y16	Z16	X17	Y17	Z17	X18	Y18	Z18	X19	Y19	Z19	X20	Y20	Z20	X21	Y21	Z21	X22	Y22	Z22	X23	Y23	Z23	X24	Y24	Z24	X25	Y25	Z25	X26	Y26	Z26	X27	Y27	Z27	X28	Y28	Z28	X29	Y29	Z29	X30	Y30	Z30	X31	Y31	Z31	X32	Y32	Z32	X33	Y33	Z33	X34	Y34	Z34	X35	Y35	Z35	X36	Y36	Z36	X37	Y37	Z37	X38	Y38	Z38	X39	Y39	Z39	X40	Y40	Z40	X41	Y41	Z41	X42	Y42	Z42	X43	Y43	Z43	X44	Y44	Z44	X45	Y45	Z45	X46	Y46	Z46	X47	Y47	Z47	X48	Y48	Z48	X49	Y49	Z49	
1000	5.0000	490.375004	1271.300812	-193.569571	474.243998	1250.884856	-439.365299	468.161073	1329.487242	-327.285385	400.038461	1184.260333	-304.044268	510.299070	1066.210940	-7.252044	693.391879	934.193918	-92.205962	473.451367	1018.307562	-612.745961	682.733991	919.369883	-491.736520	-106.071224	1167.576163	-266.105656	25.534290	1170.992472	-419.861849	47.150342	1195.525841	-134.911529	74.190841	1121.037300	-381.288339	90.955788	1135.203317	-163.225861	-70.561016	1217.175879	-230.682773	-73.268932	1215.537473	-316.739922	7.332123	1057.897523	-102.505088	-23.052043	1078.081977	-440.880144	103.376245	969.002741	-97.240403	177.447133	920.322102	-105.010117	215.764841	841.948819	-115.968488	202.991098	944.591998	-116.281975	315.573541	733.853099	-149.366646	271.069317	633.755639	-115.071116	280.302541	545.697694	-123.767672	247.915959	466.416892	-122.928713	306.739521	543.779701	-152.198806	228.824036	333.411887	-124.282892	237.132876	358.787700	-205.160782	162.573625	290.498559	-167.788749	458.753499	301.748483	-157.668117	358.698653	270.423853	-94.630534	96.186136	993.611704	-452.232322	180.300090	975.828391	-446.774504	196.788770	1005.460361	-430.307077	246.214934	913.721871	-445.509756	350.943427	813.283520	-413.106246	327.849836	796.115347	-306.830425	258.048084	731.515762	-444.485371	212.844352	657.472302	-436.708905	134.442724	614.818257	-441.413668	233.088872	637.102566	-410.669074	52.275139	530.576461	-443.277570	0.000000	0.000000	-0.000000	-15.142523	552.947282	-398.334025	143.893421	304.097257	-399.339166	59.746697	375.522206	-462.736712	-219.756351	909.429838	-273.243908	-53.276658	79.501965	-474.547559	-53.295377	79.159944	-76.942473	
1001	5.0050	491.212217	1271.539025	-195.532046	473.460308	1250.946754	-440.867468	468.231087	1329.804854	-328.819774	399.976662	1184.688052	-305.225628	511.343175	1067.228543	-8.056958	693.857389	934.062952	-92.517418	473.417470	1017.710518	-612.887001	682.939682	919.515170	-491.618632	-105.268377	1168.502356	-264.599039	25.054919	1172.714513	-418.621613	48.591013	1195.693212	-133.911917	73.935773	1122.655796	-380.544769	92.023400	1135.107822	-162.331114	-69.408863	1217.899213	-228.659910	-72.841400	1216.856800	-314.824245	7.435352	1057.096950	-102.175223	-22.839391	1081.005665	-440.326869	102.078552	966.488103	-95.938419	174.286873	915.227464	-104.498478	209.865242	835.477427	-115.354665	200.631520	938.770133	-115.875691	307.154642	725.006791	-148.206244	262.968396	624.841613	-113.645939	273.487707	537.089183	-122.506080	242.223202	457.238155	-121.781047	300.072987	535.500933	-150.702607	225.524343	323.855812	-123.545209	233.555954	348.903791	-204.507504	159.013483	281.340810	-166.954429	455.383641	290.769448	-157.905193	355.366424	260.111343	-94.432122	97.100175	997.756526	-452.364699	181.552662	981.786161	-446.723524	197.389892	1011.577592	-429.804195	248.743233	921.035980	-445.780225	355.743952	822.371737	-412.509395	332.263961	804.740935	-307.059173	261.433675	741.165285	-444.451174	215.231936	667.274035	-436.025026	136.943468	625.478505	-440.906786	236.199162	646.730393	-411.141512	54.402404	541.240428	-442.851709	0.000000	0.000000	-0.000000	-13.040924	563.024487	-397.825039	147.914813	315.514659	-399.411209	63.191056	386.340791	-462.629814	-219.702948	909.483417	-273.169102	-53.261501	79.551752	-474.530709	-53.279902	79.176135	-76.944852	
1002	5.0100	491.896549	1271.928970	-197.171779	476.516475	1252.930524	-447.080397	468.023013	1329.959932	-330.328764	404.857266	1182.350292	-308.008833	512.363234	1068.272268	-8.922398	694.254921	933.936137	-92.904412	473.347504	1017.250341	-613.005751	683.069933	919.662057	-491.565199	-104.494833	1169.532065	-262.951089	24.656595	1174.493071	-417.522726	50.173151	1195.836656	-132.831753	73.664597	1124.329247	-379.829524	93.106852	1134.985737	-161.464839	-68.333991	1218.483355	-226.901875	-72.408100	1218.194913	-312.859095	7.500541	1056.420255	-101.887563	-22.624299	1083.987918	-439.917126	99.788365	963.458054	-95.919814	170.792892	910.144758	-103.848122	203.854756	829.210664	-115.030092	197.848381	932.793676	-115.302149	298.383755	716.369811	-147.320098	254.946945	616.385472	-111.993751	266.401270	528.728589	-121.068543	236.039991	448.410900	-120.458410	293.050274	527.431922	-149.198091	221.784987	314.736465	-122.800717	229.070394	339.765450	-203.630353	154.171279	273.589163	-164.914358	451.453070	279.851741	-158.259259	351.462403	250.134308	-94.309771	97.981712	1002.364225	-452.326663	182.685123	988.076535	-446.620174	197.866346	1018.055213	-429.383928	251.154504	928.645881	-446.150390	359.862670	831.412800	-412.994636	336.680583	813.360308	-307.403165	264.925258	751.019788	-444.359531	218.311730	677.531230	-436.065970	139.708164	636.209352	-440.396365	239.450783	656.468454	-411.669128	56.853764	551.592459	-442.444840	0.000000	0.000000	-0.000000	-11.011685	572.790308	-397.501147	152.611263	326.898331	-399.400696	67.255113	396.999357	-462.531766	-219.674511	909.539926	-273.154776	-53.245882	79.618769	-474.538895	-53.280279	79.188107	-76.948469	
1003	5.0150	492.550442	1272.220389	-198.712005	475.633885	1253.205265	-448.374722	467.998083	1330.208732	-331.789625	404.679534	1182.733379	-308.964592	513.187861	1069.124468	-9.747241	694.591837	933.757963	-93.293712	473.216410	1016.954092	-613.095181	683.142679	919.856250	-491.627422	-103.766546	1170.490925	-261.418109	24.045868	1176.378564	-416.272407	51.825486	1195.844979	-131.811095	73.365491	1126.037311	-379.149072	94.241270	1134.866715	-160.627969	-66.854639	1218.869108	-225.156026	-71.494062	1219.238279	-311.313325	7.582216	1055.713673	-101.668872	-22.341096	1087.026470	-439.535667	97.575775	960.772529	-95.277509	166.909032	905.142573	-103.115831	197.287444	823.247378	-114.603838	194.734822	927.121814	-114.514308	289.465997	708.260968	-146.247231	247.139172	608.319025	-110.216825	259.233733	520.817015	-119.546663	229.595562	440.217912	-118.866821	285.706427	519.847413	-147.773791	217.553971	306.215290	-121.819444	224.247176	331.028108	-202.609619	149.460900	265.671060	-163.515811	446.908448	269.037356	-158.669721	347.017321	240.351632	-94.108656	98.816164	1007.360653	-452.152760	183.786644	994.594880	-446.466041	198.347889	1024.743987	-428.905422	253.404879	936.525777	-446.492194	363.922602	840.731177	-413.633671	341.259289	822.172376	-307.897754	268.594141	761.053167	-444.168440	221.571283	687.753777	-436.024590	142.735755	646.673430	-439.768739	242.852497	666.056479	-412.348929	59.765436	561.686056	-441.993518	0.000000	0.000000	-0.000000	-8.547778	582.005041	-397.091732	158.044574	338.239385	-399.520131	71.908396	407.343829	-462.482229	-219.659924	909.575496	-273.175992	-53.246229	79.649402	-474.526163	-53.263817	79.205341	-76.945424	
